<svg xmlns="http://www.w3.org/2000/svg" style="isolation:isolate" width="300" height="100"><defs><clipPath id="A"><path d="M0 0h300v100H0z"/></clipPath></defs><g fill="#555" clip-path="url(#A)"><path d="M18.618 79.529q-5.559 0-9.794-1.941-4.236-1.941-6.53-5.427Q0 68.676 0 64.088q0-3.883 1.632-7.059 1.633-3.177 4.412-5.03 2.78-1.853 6.133-1.853 3.088 0 5.206 1.544 2.117 1.545 2.647 4.28-4.589 0-7.324 2.426-2.735 2.427-2.735 6.574 0 3.794 2.294 6.088 2.294 2.295 6.088 2.295 4.677 0 7.721-3.133 3.044-3.132 3.044-7.897 0-4.147-2.294-7.853-2.294-3.706-6.883-9-4.764-5.471-7.191-9.398-2.426-3.926-2.426-8.603 0-4.588 2.559-8.25 2.558-3.662 7.058-5.779 4.501-2.118 10.148-2.118 7.147 0 11.426 3.353 4.28 3.353 4.28 9 0 3.706-1.853 6-1.853 2.294-4.853 2.294-3.353 0-5.383-2.735 1.677-1.235 2.648-3.265.97-2.029.97-4.235 0-2.824-1.676-4.5-1.677-1.677-4.589-1.677-3.529 0-5.779 2.515-2.25 2.515-2.25 6.397 0 3.53 2.029 6.574 2.03 3.044 6.353 7.809 3.53 3.794 5.692 6.529 2.161 2.736 3.705 6.309 1.545 3.574 1.545 7.721 0 5.647-3.133 10.236-3.132 4.588-8.559 7.235-5.426 2.647-12.044 2.647z"/><path d="M59.961 29.058q-2.912 0-4.942-2.03-2.029-2.029-2.029-4.941 0-2.912 2.029-4.985 2.03-2.074 4.942-2.074 2.911 0 4.985 2.074 2.074 2.073 2.074 4.985 0 2.912-2.074 4.941-2.074 2.03-4.985 2.03zm-6 49.412q-4.236 0-6.839-2.647-2.603-2.647-2.603-7.941 0-2.206.706-5.736l6-28.324h12.706l-6.353 30.001q-.353 1.323-.353 2.824 0 1.764.839 2.514.838.75 2.779.75 2.559 0 4.765-2.162 2.206-2.161 3.176-5.603h3.706q-3.264 9.53-8.382 12.927-5.118 3.397-10.147 3.397z" fill-rule="evenodd"/><path d="M77.52 78.47q-4.236 0-6.839-2.647-2.603-2.647-2.603-7.941 0-2.206.706-5.736l5.295-24.794h-2.912l.706-3.53h2.911l2.648-12.176 13.059-1.765-3 13.941h5.294l-.706 3.53h-5.294l-5.648 26.471q-.352 1.323-.352 2.824 0 1.764.838 2.514.838.75 2.779.75 2.559 0 4.765-2.162 2.206-2.161 3.177-5.603h3.705q-3.264 9.53-8.382 12.927-5.118 3.397-10.147 3.397z"/><path d="M104.961 78.47q-6.529 0-10.147-3.397-3.618-3.397-3.618-10.632 0-6.089 2.383-13.412 2.382-7.324 7.765-12.662 5.382-5.339 13.676-5.339 9.706 0 9.706 8.471 0 4.941-2.823 9.088-2.824 4.148-7.5 6.662-4.677 2.515-9.971 2.868-.176 2.647-.176 3.529 0 4.324 1.5 5.868 1.5 1.544 4.853 1.544 4.764 0 8.161-2.206 3.398-2.205 7.456-6.706h3q-9.794 16.324-24.265 16.324zm.177-22.588q3.265-.177 6.221-2.295 2.955-2.117 4.764-5.382 1.809-3.265 1.809-6.882 0-3.618-2.206-3.618-3.176 0-6.22 5.559-3.045 5.559-4.368 12.618z" fill-rule="evenodd"/><path d="M125.833 58.352l1.588-6.97h17.648l-1.5 6.97h-17.736zM187.073 100q-3.97 0-7.809-2.25-3.838-2.25-9.75-6.927-4.412-3.529-7.544-5.691-3.132-2.162-6.794-3.662-3.662-1.5-7.456-1.5-1.324 0-2.03.088l13.148-61.148q-5.912 2.383-9.133 7.28-3.221 4.897-3.221 11.956 0 3.265.618 4.544.618 1.28.618 1.456-4.765 0-7.103-1.985-2.339-1.985-2.339-6.574 0-5.647 4.633-10.985 4.632-5.339 11.868-8.647 7.235-3.309 14.471-3.309 1.235 0 3.529.176l-13.588 63.354q2.47.618 5.073 1.809 2.603 1.191 6.309 3.221 5.735 3.088 9.794 4.72 4.059 1.633 8.471 1.633 3.971 0 7.412-1.412-.706 6.441-3.132 10.147-2.427 3.706-6.045 3.706z"/><g fill-rule="evenodd"><path d="M182.004 78.294q-6.53 0-10.324-3.353-3.794-3.353-3.794-10.589 0-6 2.47-13.323 2.471-7.324 7.942-12.662 5.47-5.339 13.765-5.339 11.294 0 11.294 14.118v.088q.265.089.97.089 2.912 0 6.706-1.544 3.795-1.545 6.883-3.751l.794 2.383q-2.559 2.735-6.662 4.632-4.103 1.897-8.956 2.692-.706 8.029-3.618 14.029-2.911 6-7.5 9.265-4.588 3.265-9.97 3.265zm3.529-7.942q2.118 0 4.235-2.426 2.118-2.427 3.706-6.618 1.589-4.191 2.294-9.309-2.382-.529-2.382-3.706 0-3.617 2.735-4.765-.176-2.911-.882-4.014-.706-1.103-2.471-1.103-2.911 0-5.647 4.235-2.735 4.235-4.412 10.147-1.676 5.912-1.676 10.412 0 4.236.971 5.692.97 1.455 3.529 1.455z"/><path d="M223.475 100q-4.236 0-7.059-2.206-2.824-2.206-2.824-6.353 0-5.029 4.059-8.074 4.059-3.044 10.324-5.073l1.059-4.677q-4.5 4.853-10.589 4.853-5.029 0-8.382-3.441-3.353-3.441-3.353-10.765 0-6.529 2.603-13.721 2.603-7.191 7.765-12.176 5.161-4.986 12.309-4.986 3.617 0 5.382 1.236 1.765 1.235 1.765 3.264v.53l.97-4.589h12.706l-8.735 40.942q4.235-1.411 6.794-4.235 2.559-2.824 4.324-8.383h3.706q-2.383 7.854-6.441 11.515-4.059 3.662-9.177 4.986L239.357 85q-1.764 8.559-6.088 11.779-4.324 3.221-9.794 3.221zm.706-30.089q2.029 0 4.147-1.853 2.117-1.853 2.912-5.029l4.5-20.912q0-1.059-.883-2.162-.882-1.103-2.735-1.103-3.529 0-6.353 4.103-2.824 4.103-4.412 9.882-1.588 5.78-1.588 10.192 0 4.412 1.279 5.647 1.28 1.235 3.133 1.235zm-2.736 23.207q1.5 0 2.912-2.03 1.412-2.029 2.206-5.824l.529-2.558q-8.647 3.176-8.647 7.5 0 1.147.794 2.029.795.883 2.206.883z"/><path d="M263.294 78.956q-6.53 0-10.324-3.353-3.794-3.353-3.794-10.589 0-6 2.47-13.324 2.471-7.323 7.942-12.662 5.47-5.338 13.765-5.338 11.294 0 11.294 14.118v.088q.264.088.97.088 2.912 0 6.706-1.544 3.795-1.544 6.883-3.75l.794 2.383q-2.559 2.735-6.662 4.632-4.103 1.897-8.956 2.691-.706 8.03-3.618 14.03-2.911 6-7.5 9.265-4.588 3.265-9.97 3.265zm3.529-7.942q2.118 0 4.235-2.426 2.118-2.427 3.706-6.618 1.589-4.191 2.294-9.309-2.382-.529-2.382-3.706 0-3.618 2.735-4.765-.176-2.912-.882-4.014-.706-1.103-2.471-1.103-2.911 0-5.647 4.235-2.735 4.235-4.412 10.147-1.676 5.912-1.676 10.412 0 4.235.971 5.691.97 1.456 3.529 1.456z"/></g></g></svg>
